PathFileType	4	(X/Y/Z)	C:\Motion Data\9999\Fregly Locomotion Course\Processed\9999bj_kick4.trc
DataRate	CameraRate	NumFrames	NumMarkers	Units	OrigDataRate	OrigDataStartFrame	OrigNumFrames
200.00	200.00	       5	35	mm	200.00	110	       292
Frame#	Time	R_Heel			R_Midfoot_Superior			R_Midfoot_Lateral			R_Toe			L_Heel			L_Midfoot_Superior			L_Midfoot_Lateral			L_Toe			R_Shank_Superior			R_Shank_Inferior			R_Shank_Lateral			R_Shank Posterior			L_Shank_Superior			L_Shank_Inferior			L_Shank_Lateral			L_Shank_Posterior			R_Patella			L_Patella			R_Thigh_Superior			R_Thigh_Inferior			R_Thigh_Lateral			L_Thigh_Superior			L_Thigh_Inferior			L_Thigh_Lateral			R_Asis			L_Asis			Sacral			R_Shoulder			L_Shoulder			Back			R_Elbow			L_Elbow			R_Wrist			L_Wrist			Ball			
		X1	Y1	Z1	X2	Y2	Z2	X3	Y3	Z3	X4	Y4	Z4	X5	Y5	Z5	X6	Y6	Z6	X7	Y7	Z7	X8	Y8	Z8	X9	Y9	Z9	X10	Y10	Z10	X11	Y11	Z11	X12	Y12	Z12	X13	Y13	Z13	X14	Y14	Z14	X15	Y15	Z15	X16	Y16	Z16	X17	Y17	Z17	X18	Y18	Z18	X19	Y19	Z19	X20	Y20	Z20	X21	Y21	Z21	X22	Y22	Z22	X23	Y23	Z23	X24	Y24	Z24	X25	Y25	Z25	X26	Y26	Z26	X27	Y27	Z27	X28	Y28	Z28	X29	Y29	Z29	X30	Y30	Z30	X31	Y31	Z31	X32	Y32	Z32	X33	Y33	Z33	X34	Y34	Z34	X35	Y35	Z35

110	   0.545	 -424.11462000000000	  643.43651999999997	   49.56649000000000	 -516.18115000000000	  489.90964000000002	   82.45034000000000	 -534.64635999999996	  575.64813000000004	  123.43764000000000	 -609.56322999999998	  446.22778000000000	   98.62444000000001	  355.29037000000000	   41.04892000000000	  206.77781999999999	  525.30200000000002	   99.39642000000001	  167.63115999999999	  475.05221999999998	   24.65021000000000	  127.28682999999999	  625.42767000000003	   78.24493000000000	  155.47883999999999	 -181.89230000000001	  437.07092000000000	  207.09238999999999	 -328.66219999999998	  485.62625000000003	  152.29811000000001	 -256.60471000000001	  533.39362000000006	  219.25829999999999	 -169.51129000000000	  581.64116999999999	  172.46716000000001	  440.00522000000001	  381.57123000000001	   99.81757000000000	  452.76166000000001	  229.38585000000000	  140.77663000000001	  390.48192999999998	  293.28043000000002	   44.99857000000000	  359.10669000000001	  180.91492000000000	  130.94504000000001	  -43.05337000000000	  410.97922000000000	  250.26093000000000	  450.09814000000000	  488.65591000000001	   75.35665000000000	   81.32895000000001	  641.46704000000000	  268.17514000000000	   44.18857000000000	  544.55773999999997	  263.45952999999997	  -22.63646000000000	  637.17205999999999	  274.14240000000001	  346.59109000000001	  705.66187000000002	  -11.86356000000000	  398.01566000000003	  615.79425000000003	   25.09078000000000	  301.40683000000001	  597.60546999999997	  -45.47914000000000	  138.61067000000000	  901.60979999999995	  217.03423000000001	  247.05092999999999	  860.07617000000005	  -17.17393000000000	   42.15910000000000	  946.08069000000000	   18.79580000000000	  102.67635000000000	 1318.48742999999990	  253.95276000000001	  270.89627000000002	 1388.01867999999990	  -71.78147000000000	  164.05135999999999	 1396.38744999999994	   59.56690000000000	   -5.28287000000000	 1036.04395000000000	  307.18624999999997	  135.76366999999999	 1290.77869000000010	 -326.81171000000001	  171.19846000000001	  932.23339999999996	  474.16135000000003	   79.77390000000000	 1175.70044000000007	 -559.24694999999997	  489.18671000000001	  218.04662999999999	  475.46010999999999
111	   0.550	 -402.64999000000000	  644.32989999999995	   57.51262000000000	 -481.78701999999998	  503.01636000000002	  129.95432000000000	 -512.60437000000002	  580.36658000000000	  137.57042000000001	 -591.33159999999998	  452.61252000000002	  112.85693000000001	  356.02695000000000	   41.16164000000000	  206.38040000000001	  530.79760999999996	   95.82288000000000	  171.74188000000001	  475.89206000000001	   26.04226000000000	  126.86888999999999	  630.70452999999998	   68.81831000000000	  161.82019000000000	 -163.68297999999999	  433.47165000000001	  215.20240999999999	 -309.90021000000002	  484.96663999999998	  160.89227000000000	 -236.06116000000000	  530.82996000000003	  227.73553000000001	 -148.85173000000000	  575.73937999999998	  179.58983000000001	  449.71197999999998	  381.99149000000000	   99.43353000000000	  460.35933999999997	  229.05683999999999	  139.64284000000001	  399.67788999999999	  295.11176000000000	   43.83736000000000	  365.81891000000002	  183.63903999999999	  130.63831999999999	  -24.24884000000000	  406.15033000000000	  256.88770000000000	  459.58017000000001	  490.06238000000002	   73.51045000000001	   96.35559000000001	  639.31817999999998	  271.22136999999998	   61.01323000000000	  541.34289999999999	  268.07378999999997	   -7.01248000000000	  631.93768000000000	  279.71346999999997	  354.25945999999999	  705.97277999999994	  -10.60596000000000	  405.09384000000000	  614.15374999999995	   24.20600000000000	  307.92712000000000	  596.90899999999999	  -45.52381000000000	  147.02312000000001	  898.24938999999995	  217.50504000000001	  254.24753000000001	  857.29967999999997	  -16.65621000000000	   48.47514000000000	  942.04651000000001	   19.77804000000000	  106.47605000000000	 1315.55286000000001	  256.07724000000002	  275.85593000000000	 1385.14635999999996	  -71.23707000000000	  168.70818000000000	 1394.18579000000000	   60.91067000000000	   -4.09786000000000	 1032.84192000000007	  304.82864000000001	  144.92350999999999	 1282.16089000000011	 -326.84679999999997	  168.26030000000000	  925.12285999999995	  473.55977999999999	   95.56976000000000	 1164.07116999999994	 -558.73987000000000	  489.06792999999999	  217.49970999999999	  476.48599000000002
112	   0.555	 -379.95999000000000	  643.30664000000002	   67.56901999999999	 -465.72976999999997	  498.19238000000001	  132.65955000000000	 -490.13159000000002	  582.25103999999999	  148.18672000000001	 -573.81763000000001	  456.21841000000001	  122.85899999999999	  357.11353000000003	   42.89335000000000	  206.28928999999999	  533.93793000000005	   93.99557000000000	  174.73335000000000	  476.55750000000000	   26.25950000000000	  127.05051000000000	  632.57306000000005	   62.49654000000000	  163.89368999999999	 -143.30028999999999	  429.26691000000000	  224.68235999999999	 -290.94412000000000	  482.78458000000001	  170.35077999999999	 -214.89456000000001	  527.81444999999997	  237.41955999999999	 -127.43724000000000	  569.14166000000000	  186.51188999999999	  458.68178999999998	  382.39663999999999	   98.41864000000000	  467.34350999999998	  229.63950000000000	  138.43146999999999	  408.54520000000002	  296.37459999999999	   41.99427000000000	  372.36182000000002	  185.35735000000000	  127.99114000000000	   -3.59839000000000	  402.28958000000000	  265.14681999999999	  468.87320000000000	  492.25018000000000	   73.02028000000000	  111.76176000000000	  637.83001999999999	  274.17282000000000	   79.22049000000000	  539.36303999999996	  272.82781999999997	    8.72379000000000	  627.93921000000000	  284.58688000000001	  361.34102999999999	  708.27277000000004	  -10.31645000000000	  412.25409000000002	  613.82647999999995	   25.28479000000000	  316.05056999999999	  597.94976999999994	  -44.12216000000000	  153.78635000000000	  896.12994000000003	  218.64100999999999	  259.67734000000002	  853.48626999999999	  -16.42665000000000	   53.17937000000000	  938.78186000000005	   20.70052000000000	  110.74078000000000	 1312.24548000000004	  257.90674000000001	  281.29766999999998	 1383.41247999999996	  -70.32359000000000	  173.80495999999999	 1391.41846000000010	   62.28352000000000	   -2.85029000000000	 1029.96692000000007	  302.47018000000003	  154.65967000000001	 1273.73913999999991	 -327.80365000000000	  165.32686000000001	  917.97362999999996	  473.25168000000002	  111.42868000000000	 1149.79259999999999	 -557.33936000000006	  489.96163999999999	  217.87038000000001	  476.52802000000003
113	   0.560	 -357.38396999999998	  639.89702999999997	   77.04866000000000	 -445.05462999999997	  496.87799000000001	  142.93983000000000	 -467.42775999999998	  582.27673000000004	  159.52080000000001	 -555.39655000000005	  456.86165999999997	  135.59038000000001	  357.68488000000002	   43.23104000000000	  206.33194000000000	  535.92529000000002	   92.91594000000001	  175.46991000000000	  476.81934000000001	   26.32998000000000	  127.35512000000000	  634.38811999999996	   58.57486000000000	  164.66857999999999	 -122.08799000000000	  425.17273000000000	  234.09090000000000	 -268.41131999999999	  480.89846999999997	  183.23228000000000	 -192.55418000000000	  524.45336999999995	  245.48445000000001	 -104.80517999999999	  562.83807000000002	  194.43956000000000	  466.99669999999998	  383.01290999999998	   97.11212999999999	  473.02753000000001	  230.47953999999999	  138.09783999999999	  415.51409999999998	  297.31677000000002	   43.15736000000000	  375.44659000000001	  187.72350000000000	  127.35863000000001	   18.39966000000000	  398.36295000000001	  273.61464999999998	  476.41338999999999	  495.07855000000001	   73.43388000000000	  127.33022000000000	  636.83063000000004	  277.36739999999998	   97.52874000000000	  538.09984999999995	  278.56738000000001	   25.34348000000000	  625.36139000000003	  290.34426999999999	  367.00916000000001	  710.85419000000002	  -10.89685000000000	  421.14276000000001	  616.21240000000000	   27.84183000000000	  324.85660000000001	  599.56622000000004	  -44.64754000000000	  158.68771000000001	  892.55353000000002	  217.92644000000001	  266.36002000000002	  852.13867000000005	  -16.10419000000000	   58.66352000000000	  937.58923000000004	   20.64615000000000	  114.23357000000000	 1308.98742999999990	  260.00986000000000	  287.01531999999997	 1382.43798999999990	  -69.56116000000000	  178.13487000000001	 1389.94910000000004	   63.15210000000000	   -2.24199000000000	 1027.52343999999994	  300.35986000000003	  165.47049999999999	 1265.74927000000002	 -327.88828000000001	  160.98584000000000	  909.38336000000004	  471.64429000000001	  128.71352999999999	 1136.68677000000002	 -555.46289000000002	  490.88657000000001	  218.61015000000000	  476.62927000000002
114	   0.565	 -334.94089000000002	  634.67962999999997	   86.57174999999999	 -417.56436000000002	  499.57058999999998	  168.33812000000000	 -444.54964999999999	  578.70250999999996	  171.49825000000001	 -532.85973999999999	  455.18069000000003	  155.96181000000001	  357.99047999999999	   43.48935000000000	  205.67195000000001	  536.27544999999998	   92.67624000000001	  176.65136999999999	  477.07778999999999	   26.62373000000000	  127.62923000000001	  635.52777000000003	   56.23003000000000	  166.03035000000000	  -98.99393999999999	  421.16100999999998	  244.77443000000000	 -245.86768000000001	  475.76101999999997	  192.25667999999999	 -169.72209000000001	  520.20812999999998	  256.51749000000001	  -81.76054999999999	  556.57263000000000	  200.28931000000000	  473.63515999999998	  383.13715000000002	   96.89015000000001	  477.45627000000002	  230.35287000000000	  137.74467000000001	  420.58629999999999	  297.78210000000001	   42.09347000000000	  379.19821000000002	  188.39286999999999	  126.92488000000000	   42.15641000000000	  395.58832000000001	  282.32135000000000	  483.91750999999999	  497.99401999999998	   74.01363000000001	  143.58112000000000	  637.95654000000002	  280.42534999999998	  116.75288999999999	  537.92229999999995	  284.07616999999999	   42.40456000000000	  623.11536000000001	  296.20969000000002	  372.31479000000002	  713.34826999999996	  -12.05342000000000	  429.55356000000000	  621.11785999999995	   29.28023000000000	  334.92455999999999	  601.58411000000001	  -45.64251000000000	  167.53138999999999	  897.20294000000001	  220.63290000000001	  271.40417000000002	  851.54852000000005	  -16.34037000000000	   63.89759000000000	  935.81817999999998	   19.90428000000000	  118.47390000000000	 1307.12976000000003	  261.31151999999997	  292.67410000000001	 1381.26586999999995	  -66.20541000000000	  183.44846999999999	 1389.15479000000005	   66.18971999999999	   -1.96669000000000	 1026.33167000000003	  300.08069000000000	  176.49923999999999	 1257.51807000000008	 -327.23595999999998	  156.24866000000000	  901.77295000000004	  469.47482000000002	  147.55645999999999	 1123.19739000000004	 -552.59283000000005	  484.06335000000001	  214.92380000000000	  476.73809999999997
